<svg xmlns="http://www.w3.org/2000/svg" version="1.1" xmlns:xlink="http://www.w3.org/1999/xlink" xmlns:svgjs="http://svgjs.dev/svgjs" width="1000" height="2335" viewBox="0 0 1000 2335"><g transform="matrix(1,0,0,1,-1.60691256573773,0.7140672782875299)"><svg viewBox="0 0 140 327" data-background-color="#ffffff" preserveAspectRatio="xMidYMid meet" height="2335" width="1000" xmlns="http://www.w3.org/2000/svg" xmlns:xlink="http://www.w3.org/1999/xlink"><g id="tight-bounds" transform="matrix(1,0,0,1,0.22496775920328105,-0.10000000000002274)"><svg viewBox="0 0 139.55006448159344 327.2" height="327.2" width="139.55006448159344"><g><svg viewBox="0 0 278.05533596837944 651.9502965966306" height="327.2" width="139.55006448159344"><g transform="matrix(1,0,0,1,0,324.75029659663056)"><svg viewBox="0 0 278.05533596837944 327.2" height="327.2" width="278.05533596837944"><g><svg viewBox="0 0 278.05533596837944 327.2" height="327.2" width="278.05533596837944"><g><svg viewBox="0 0 278.05533596837944 327.2" height="327.2" width="278.05533596837944"><g transform="matrix(1,0,0,1,0,0)"><svg width="278.05533596837944" viewBox="0.05 -37.95 32.25 37.95" height="327.2" data-palette-color="#0272f9"><path d="M32.3 0L26.9 0Q26.65-0.55 26.2-1.6 25.75-2.65 25.18-4.03 24.6-5.4 23.93-7.03 23.25-8.65 22.55-10.4L22.55-10.4 9.75-10.4 5.45 0 0.05 0 16.2-37.95Q16.5-37.25 17.28-35.4 18.05-33.55 19.13-30.98 20.2-28.4 21.53-25.28 22.85-22.15 24.23-18.95 25.6-15.75 26.93-12.65 28.25-9.55 29.35-6.95 30.45-4.35 31.23-2.53 32-0.7 32.3 0L32.3 0ZM15.65-24.7L11.65-15 20.7-15Q20-16.65 19.38-18.18 18.75-19.7 18.23-20.98 17.7-22.25 17.3-23.2 16.9-24.15 16.7-24.7L16.7-24.7Q16.65-24.8 16.48-25.4 16.3-26 16.2-26.5L16.2-26.5Q16.1-26 15.9-25.4 15.7-24.8 15.65-24.7L15.65-24.7Z" opacity="1" transform="matrix(1,0,0,1,0,0)" fill="#0272f9" class="undefined-text-0" data-fill-palette-color="primary" id="text-0"></path></svg></g></svg></g></svg></g></svg></g><g transform="matrix(1,0,0,1,10.149019762845853,0)"><svg viewBox="0 0 257.75729644268773 298.5742965966306" height="298.5742965966306" width="257.75729644268773"><g><svg xmlns="http://www.w3.org/2000/svg" xmlns:xlink="http://www.w3.org/1999/xlink" version="1.1" x="0" y="0" viewBox="9.638 3.247 80.72399999999999 93.507" enable-background="new 0 0 100 100" xml:space="preserve" height="298.5742965966306" width="257.75729644268773" class="icon-icon-0" data-fill-palette-color="accent" id="icon-0"><g fill="#01ff70" data-fill-palette-color="accent"><g fill="#01ff70" data-fill-palette-color="accent"><polygon points="36.703,11.011 9.638,26.636 9.638,38.757 36.703,23.131 63.767,38.757 63.767,26.636   " fill="#01ff70" data-fill-palette-color="accent"></polygon></g><g fill="#01ff70" data-fill-palette-color="accent"><polygon points="63.298,89.092 36.233,73.467 36.233,61.348 63.298,76.973 90.362,61.348 90.362,73.467   " fill="#01ff70" data-fill-palette-color="accent"></polygon></g><g fill="#01ff70" data-fill-palette-color="accent"><polygon points="9.638,42.012 36.703,26.386 47.198,32.446 20.134,48.072 20.134,79.324 9.638,73.264   " fill="#01ff70" data-fill-palette-color="accent"></polygon></g><g fill="#01ff70" data-fill-palette-color="accent"><polygon points="77.083,18.872 50.018,3.247 39.522,9.307 66.586,24.932 66.586,56.184 77.083,50.124   " fill="#01ff70" data-fill-palette-color="accent"></polygon></g><g fill="#01ff70" data-fill-palette-color="accent"><polygon points="23.01,81.127 23.011,49.876 33.507,43.816 33.507,75.068 60.571,90.693 50.075,96.754   " fill="#01ff70" data-fill-palette-color="accent"></polygon></g><g fill="#01ff70" data-fill-palette-color="accent"><polygon points="90.362,58.092 90.362,26.84 79.866,20.78 79.866,52.031 52.802,67.658 63.298,73.719   " fill="#01ff70" data-fill-palette-color="accent"></polygon></g></g></svg></g></svg></g><g></g></svg></g><defs></defs></svg><rect width="139.55006448159344" height="327.2" fill="none" stroke="none" visibility="hidden"></rect></g></svg></g></svg>